<svg width="16" height="17" viewBox="0 0 16 17" fill="none" xmlns="http://www.w3.org/2000/svg">
<path d="M9.29032 2.5C9.3331 2.5 9.37412 2.51621 9.40437 2.54506C9.43462 2.57391 9.45161 2.61304 9.45161 2.65385V6.12892C9.45161 6.38369 9.66839 6.59046 9.93548 6.59046H12.8387C12.8815 6.59046 12.9225 6.60667 12.9528 6.63552C12.983 6.66437 13 6.70351 13 6.74431V12.8077C13 13.2565 12.8131 13.687 12.4804 14.0043C12.1476 14.3217 11.6964 14.5 11.2258 14.5H4.77419C4.30365 14.5 3.85237 14.3217 3.51965 14.0043C3.18692 13.687 3 13.2565 3 12.8077V4.19231C3 3.74348 3.18692 3.31303 3.51965 2.99567C3.85237 2.6783 4.30365 2.5 4.77419 2.5H9.29032Z" fill="black"/>
<path d="M11.1817 2.52852C11.1044 2.45671 11 2.52977 11 2.64465V5.3439C11 5.43007 11.0606 5.5 11.1352 5.5H12.9189C12.9827 5.5 13.0227 5.42258 12.986 5.36263L11.3559 2.74206C11.3062 2.6624 11.2476 2.59061 11.1817 2.52852Z" fill="black"/>
</svg>
