<svg width="10" height="9" viewBox="0 0 10 9" fill="none" xmlns="http://www.w3.org/2000/svg">
<path d="M7.91667 2H2.08333C1.6231 2 1.25 2.3731 1.25 2.83333V7.41667C1.25 7.8769 1.6231 8.25 2.08333 8.25H7.91667C8.3769 8.25 8.75 7.8769 8.75 7.41667V2.83333C8.75 2.3731 8.3769 2 7.91667 2Z" stroke="black"/>
<path d="M1.25 3.66667C1.25 2.88083 1.25 2.48833 1.49417 2.24417C1.73833 2 2.13083 2 2.91667 2H7.08333C7.86917 2 8.26167 2 8.50583 2.24417C8.75 2.48833 8.75 2.88083 8.75 3.66667H1.25Z" fill="black"/>
<path d="M2.91406 0.75V2M7.08073 0.75V2" stroke="black" stroke-linecap="round"/>
</svg>
