<svg width="16" height="16" viewBox="0 0 16 16" fill="none" xmlns="http://www.w3.org/2000/svg">
<path d="M7.33594 11.3333H8.66927V7.33334H7.33594V11.3333ZM8.0026 6.00001C8.19149 6.00001 8.34994 5.93601 8.47794 5.80801C8.60594 5.68001 8.66972 5.52179 8.66927 5.33334C8.66883 5.1449 8.60483 4.98668 8.47727 4.85868C8.34972 4.73068 8.19149 4.66668 8.0026 4.66668C7.81372 4.66668 7.65549 4.73068 7.52794 4.85868C7.40038 4.98668 7.33638 5.1449 7.33594 5.33334C7.33549 5.52179 7.39949 5.68023 7.52794 5.80868C7.65638 5.93712 7.8146 6.0009 8.0026 6.00001ZM8.0026 14.6667C7.08038 14.6667 6.21372 14.4916 5.40261 14.1413C4.59149 13.7911 3.88594 13.3162 3.28594 12.7167C2.68594 12.1171 2.21105 11.4116 1.86127 10.6C1.51149 9.78845 1.33638 8.92179 1.33594 8.00001C1.33549 7.07823 1.51061 6.21157 1.86127 5.40001C2.21194 4.58845 2.68683 3.8829 3.28594 3.28334C3.88505 2.68379 4.59061 2.2089 5.40261 1.85868C6.21461 1.50845 7.08127 1.33334 8.0026 1.33334C8.92394 1.33334 9.7906 1.50845 10.6026 1.85868C11.4146 2.2089 12.1202 2.68379 12.7193 3.28334C13.3184 3.8829 13.7935 4.58845 14.1446 5.40001C14.4957 6.21157 14.6706 7.07823 14.6693 8.00001C14.6679 8.92179 14.4928 9.78845 14.1439 10.6C13.7951 11.4116 13.3202 12.1171 12.7193 12.7167C12.1184 13.3162 11.4128 13.7913 10.6026 14.142C9.79238 14.4927 8.92572 14.6676 8.0026 14.6667ZM8.0026 13.3333C9.49149 13.3333 10.7526 12.8167 11.7859 11.7833C12.8193 10.75 13.3359 9.4889 13.3359 8.00001C13.3359 6.51112 12.8193 5.25001 11.7859 4.21668C10.7526 3.18334 9.49149 2.66668 8.0026 2.66668C6.51372 2.66668 5.2526 3.18334 4.21927 4.21668C3.18594 5.25001 2.66927 6.51112 2.66927 8.00001C2.66927 9.4889 3.18594 10.75 4.21927 11.7833C5.2526 12.8167 6.51372 13.3333 8.0026 13.3333Z" fill="#B2B2B2"/>
</svg>
