<svg width="25" height="24" viewBox="0 0 25 24" fill="none" xmlns="http://www.w3.org/2000/svg">
<path fill-rule="evenodd" clip-rule="evenodd" d="M13.4294 3.59425L15.121 3.01795L16.6651 7.53454H17.4413V11.2942H11.5792C11.4373 10.9518 11.2291 10.6409 10.967 10.3788C10.7049 10.1167 10.394 9.90853 10.0516 9.76664C9.709 9.62475 9.34147 9.55157 8.97067 9.55157C8.59988 9.55157 8.23235 9.62475 7.88978 9.76664C7.54736 9.90853 7.23643 10.1167 6.97433 10.3788C6.71226 10.6409 6.50408 10.9518 6.36219 11.2942C6.22031 11.6368 6.14713 12.0044 6.14712 12.3751C6.14712 13.124 6.44485 13.842 6.97433 14.3715C7.14989 14.547 7.34761 14.6946 7.55889 14.8168V17.2157H0.5V7.53454H0.91085V7.52627L1.43475 7.53179L10.8636 0L13.4294 3.59425ZM2.11307 15.6026H3.72751C3.72751 15.1747 3.55718 14.7637 3.25462 14.4611C2.95204 14.1585 2.54098 13.9882 2.11307 13.9882V15.6026ZM2.11307 10.7621C2.54098 10.7621 2.95204 10.5917 3.25462 10.2892C3.55695 9.98676 3.72734 9.57659 3.72751 9.14899H2.11307V10.7621ZM14.2138 9.14899C14.214 9.57659 14.3844 9.98676 14.6867 10.2892C14.9893 10.5917 15.4004 10.7621 15.8283 10.7621V9.14899H14.2138ZM12.8958 5.48029L6.87093 7.53454H14.9611L14.1242 5.08737L12.8958 5.48029ZM5.61356 6.25788L11.8342 4.13883L10.541 2.32309L5.61356 6.25788Z" fill="#113D7B"/>
<path d="M11.4962 12.7058C10.8269 12.7058 10.185 12.982 9.71179 13.4737C9.23853 13.9654 8.97266 14.6323 8.97266 15.3276V21.3781C8.97266 22.0735 9.23853 22.7404 9.71179 23.2321C10.185 23.7238 10.8269 24 11.4962 24H21.9787C22.3101 24 22.6382 23.9322 22.9444 23.8004C23.2506 23.6687 23.5288 23.4755 23.7631 23.2321C23.9974 22.9886 24.1833 22.6996 24.3101 22.3815C24.437 22.0634 24.5022 21.7224 24.5022 21.3781V15.3276C24.5022 14.9833 24.437 14.6424 24.3101 14.3243C24.1833 14.0062 23.9974 13.7172 23.7631 13.4737C23.5288 13.2302 23.2506 13.0371 22.9444 12.9053C22.6382 12.7736 22.3101 12.7058 21.9787 12.7058H11.4962ZM12.296 16.9169L12.855 17.4977L13.4141 16.9169C13.4674 16.8575 13.5317 16.8098 13.6032 16.7767C13.6746 16.7436 13.7517 16.7259 13.8299 16.7244C13.9081 16.723 13.9858 16.7379 14.0583 16.7684C14.1308 16.7988 14.1967 16.8441 14.252 16.9015C14.3073 16.959 14.3509 17.0274 14.3801 17.1028C14.4094 17.1781 14.4238 17.2588 14.4224 17.34C14.4211 17.4213 14.4039 17.5014 14.3721 17.5756C14.3403 17.6498 14.2944 17.7166 14.2372 17.772L13.6789 18.3529L14.238 18.9321C14.2921 18.9883 14.3351 19.055 14.3644 19.1285C14.3937 19.202 14.4088 19.2807 14.4089 19.3602C14.4089 19.4397 14.3939 19.5185 14.3646 19.592C14.3353 19.6654 14.2924 19.7322 14.2383 19.7885C14.1843 19.8447 14.12 19.8893 14.0493 19.9198C13.9786 19.9503 13.9028 19.966 13.8263 19.966C13.7498 19.9661 13.674 19.9504 13.6033 19.92C13.5325 19.8896 13.4683 19.8451 13.4141 19.7889L12.855 19.208L12.296 19.7889C12.1856 19.8957 12.0396 19.9539 11.8887 19.9512C11.7378 19.9484 11.5939 19.8849 11.4872 19.774C11.3805 19.6632 11.3194 19.5136 11.3167 19.3569C11.314 19.2001 11.37 19.0484 11.4729 18.9337L12.032 18.3529L11.4729 17.772C11.37 17.6573 11.314 17.5056 11.3167 17.3489C11.3194 17.1921 11.3805 17.0426 11.4872 16.9317C11.5939 16.8209 11.7378 16.7574 11.8887 16.7546C12.0396 16.7518 12.1856 16.81 12.296 16.9169ZM16.5666 16.9169L17.1257 17.4977L17.6847 16.9169C17.7381 16.8575 17.8024 16.8098 17.8738 16.7767C17.9452 16.7436 18.0223 16.7259 18.1005 16.7244C18.1787 16.723 18.2564 16.7379 18.3289 16.7684C18.4014 16.7988 18.4673 16.8441 18.5226 16.9015C18.5779 16.959 18.6215 17.0274 18.6508 17.1028C18.6801 17.1781 18.6945 17.2588 18.6931 17.34C18.6917 17.4213 18.6746 17.5014 18.6427 17.5756C18.6109 17.6498 18.565 17.7166 18.5078 17.772L17.9495 18.3529L18.5086 18.9321C18.6178 19.0456 18.6792 19.1996 18.6792 19.3601C18.6792 19.5206 18.6178 19.6746 18.5086 19.7881C18.3993 19.9016 18.2512 19.9653 18.0967 19.9653C17.9422 19.9653 17.794 19.9016 17.6847 19.7881L17.1257 19.208L16.5666 19.7889C16.5133 19.8483 16.449 19.896 16.3776 19.9291C16.3061 19.9621 16.229 19.9799 16.1508 19.9813C16.0726 19.9828 15.995 19.9678 15.9225 19.9374C15.8499 19.907 15.7841 19.8617 15.7288 19.8042C15.6735 19.7468 15.6299 19.6783 15.6006 19.603C15.5713 19.5277 15.5569 19.447 15.5583 19.3657C15.5597 19.2845 15.5768 19.2044 15.6086 19.1301C15.6404 19.0559 15.6863 18.9891 15.7435 18.9337L16.3026 18.3529L15.7435 17.772C15.6407 17.6573 15.5847 17.5056 15.5873 17.3489C15.59 17.1921 15.6511 17.0426 15.7578 16.9317C15.8645 16.8209 16.0085 16.7574 16.1593 16.7546C16.3102 16.7518 16.4562 16.81 16.5666 16.9169ZM19.6492 19.3613C19.6492 19.2008 19.7106 19.0469 19.8198 18.9335C19.929 18.82 20.0771 18.7562 20.2316 18.7562H21.5904C21.7449 18.7562 21.893 18.82 22.0022 18.9335C22.1114 19.0469 22.1728 19.2008 22.1728 19.3613C22.1728 19.5218 22.1114 19.6757 22.0022 19.7891C21.893 19.9026 21.7449 19.9663 21.5904 19.9663H20.2316C20.0771 19.9663 19.929 19.9026 19.8198 19.7891C19.7106 19.6757 19.6492 19.5218 19.6492 19.3613Z" fill="#113D7B"/>
</svg>
