<svg width="14" height="15" viewBox="0 0 14 15" fill="none" xmlns="http://www.w3.org/2000/svg">
<path d="M3.88889 4H10.1111C10.2143 4 10.3132 4.04162 10.3861 4.11571C10.459 4.1898 10.5 4.29028 10.5 4.39506V5.02162C10.5 5.12638 10.459 5.22685 10.3861 5.30092L7.89172 7.83482C7.81879 7.90889 7.7778 8.00935 7.77778 8.11412V10.605C7.77778 10.665 7.7643 10.7243 7.73837 10.7782C7.71244 10.8322 7.67474 10.8794 7.62814 10.9164C7.58154 10.9533 7.52726 10.979 7.46942 10.9914C7.41159 11.0039 7.35173 11.0028 7.29439 10.9882L6.51661 10.7906C6.43252 10.7692 6.35787 10.7199 6.30453 10.6505C6.2512 10.581 6.22222 10.4955 6.22222 10.4074V8.11412C6.2222 8.00935 6.18121 7.90889 6.10828 7.83482L3.61394 5.30092C3.54101 5.22685 3.50002 5.12638 3.5 5.02162V4.39506C3.5 4.29028 3.54097 4.1898 3.6139 4.11571C3.68683 4.04162 3.78575 4 3.88889 4Z" stroke="#767676" stroke-linecap="round" stroke-linejoin="round"/>
</svg>
