<svg width="22" height="17" viewBox="0 0 22 17" fill="none" xmlns="http://www.w3.org/2000/svg">
<g clip-path="url(#clip0_365_1318)">
<path fill-rule="evenodd" clip-rule="evenodd" d="M0 0.5H22V16.5H0V0.5Z" fill="#F7FCFF"/>
<path fill-rule="evenodd" clip-rule="evenodd" d="M0 10.278V11.6113H22V10.278H0ZM0 12.722V14.0553H22V12.722H0ZM0 5.38867V6.722H22V5.38867H0ZM0 15.1667V16.5H22V15.1667H0ZM0 7.83333V9.16667H22V7.83333H0ZM0 0.5V1.83333H22V0.5H0ZM0 2.94467V4.278H22V2.94467H0Z" fill="#E31D1C"/>
<path d="M0 0.5H13.75V9.16667H0V0.5Z" fill="#2E42A5"/>
<path fill-rule="evenodd" clip-rule="evenodd" d="M1.18428 2.45933L0.685156 2.79866L0.853594 2.19466L0.410156 1.812H0.989719L1.18359 1.31866L1.41116 1.812H1.90478L1.51703 2.19466L1.66691 2.79866L1.18428 2.45933ZM3.93428 2.45933L3.43516 2.79866L3.60359 2.19466L3.16084 1.812H3.73972L3.93359 1.31866L4.16116 1.812H4.65478L4.26703 2.19466L4.41691 2.79866L3.93428 2.45933ZM6.18516 2.79866L6.68428 2.45866L7.16691 2.79866L7.01703 2.19466L7.40478 1.812H6.91116L6.68359 1.31866L6.48972 1.812H5.91084L6.35359 2.19466L6.18516 2.79866ZM9.43428 2.45866L8.93516 2.79866L9.10359 2.19466L8.66084 1.812H9.23972L9.43359 1.31866L9.66116 1.812H10.1548L9.76703 2.19466L9.91691 2.79866L9.43428 2.45866ZM0.685156 5.466L1.18428 5.126L1.66691 5.466L1.51703 4.862L1.90478 4.47933H1.41116L1.18359 3.986L0.989719 4.47933H0.410156L0.853594 4.862L0.685156 5.466ZM3.93428 5.126L3.43516 5.466L3.60359 4.862L3.16084 4.47933H3.73972L3.93359 3.986L4.16116 4.47933H4.65478L4.26703 4.862L4.41691 5.466L3.93428 5.126ZM6.18516 5.466L6.68428 5.126L7.16691 5.466L7.01703 4.862L7.40478 4.47933H6.91116L6.68359 3.986L6.48972 4.47933H5.91084L6.35359 4.862L6.18516 5.466ZM9.43428 5.126L8.93516 5.466L9.10359 4.862L8.66084 4.47933H9.23972L9.43359 3.986L9.66116 4.47933H10.1548L9.76703 4.862L9.91691 5.466L9.43428 5.126ZM0.685156 8.13267L1.18428 7.79267L1.66691 8.13267L1.51703 7.52867L1.90478 7.146H1.41116L1.18359 6.65267L0.989719 7.146H0.410156L0.853594 7.52867L0.685156 8.13267ZM3.93428 7.79267L3.43516 8.13267L3.60359 7.52867L3.16084 7.146H3.73972L3.93359 6.65267L4.16116 7.146H4.65478L4.26703 7.52867L4.41691 8.13267L3.93428 7.79267ZM6.18516 8.13267L6.68428 7.79267L7.16691 8.13267L7.01703 7.52867L7.40478 7.146H6.91116L6.68359 6.65267L6.48972 7.146H5.91084L6.35359 7.52867L6.18516 8.13267ZM9.43428 7.79267L8.93516 8.13267L9.10359 7.52867L8.66084 7.146H9.23972L9.43359 6.65267L9.66116 7.146H10.1548L9.76703 7.52867L9.91691 8.13267L9.43428 7.79267ZM11.6852 2.79933L12.1843 2.45933L12.6669 2.79933L12.517 2.19533L12.9048 1.81266H12.4112L12.1836 1.31933L11.9897 1.81266H11.4102L11.8536 2.19533L11.6852 2.79933ZM12.1843 5.126L11.6852 5.466L11.8536 4.862L11.4102 4.47933H11.9897L12.1836 3.986L12.4112 4.47933H12.9048L12.517 4.862L12.6669 5.466L12.1843 5.126ZM11.6852 8.13267L12.1843 7.79267L12.6669 8.13267L12.517 7.52867L12.9048 7.146H12.4112L12.1836 6.65267L11.9897 7.146H11.4102L11.8536 7.52867L11.6852 8.13267ZM2.55928 3.792L2.06016 4.132L2.22859 3.528L1.78516 3.14533H2.36472L2.55859 2.652L2.78616 3.14533H3.27978L2.89203 3.528L3.04191 4.132L2.55928 3.792ZM4.81016 4.132L5.30928 3.792L5.79191 4.132L5.64203 3.528L6.02978 3.14533H5.53616L5.30859 2.652L5.11472 3.14533H4.53516L4.97859 3.528L4.81016 4.132ZM8.05928 3.792L7.56016 4.132L7.72859 3.528L7.28584 3.14533H7.86472L8.05859 2.652L8.28616 3.14533H8.77978L8.39203 3.528L8.54191 4.132L8.05928 3.792ZM2.06016 6.79867L2.55928 6.45866L3.04191 6.79867L2.89203 6.19466L3.27978 5.812H2.78616L2.55859 5.31866L2.36472 5.812H1.78516L2.22859 6.19466L2.06016 6.79867ZM5.30928 6.45866L4.81016 6.79867L4.97859 6.19466L4.53584 5.812H5.11472L5.30859 5.31866L5.53616 5.812H6.02978L5.64203 6.19466L5.79191 6.79867L5.30928 6.45866ZM7.56016 6.79867L8.05928 6.45866L8.54191 6.79867L8.39203 6.19466L8.77978 5.812H8.28616L8.05859 5.31866L7.86472 5.812H7.28584L7.72859 6.19466L7.56016 6.79867ZM10.8093 3.792L10.3102 4.132L10.4786 3.528L10.0358 3.14533H10.6147L10.8086 2.652L11.0362 3.14533H11.5298L11.142 3.528L11.2919 4.132L10.8093 3.792ZM10.3102 6.79867L10.8093 6.45866L11.2919 6.79867L11.142 6.19466L11.5298 5.812H11.0362L10.8086 5.31866L10.6147 5.812H10.0358L10.4786 6.19466L10.3102 6.79867Z" fill="#F7FCFF"/>
</g>
<defs>
<clipPath id="clip0_365_1318">
<rect width="22" height="16" fill="white" transform="translate(0 0.5)"/>
</clipPath>
</defs>
</svg>
