<svg width="23" height="21" viewBox="0 0 23 21" fill="none" xmlns="http://www.w3.org/2000/svg">
<path d="M10.3889 18.7778H3.72222C3.13285 18.7778 2.56762 18.5437 2.15087 18.1269C1.73413 17.7102 1.5 17.1449 1.5 16.5556V6.55556C1.5 5.96619 1.73413 5.40095 2.15087 4.98421C2.56762 4.56746 3.13285 4.33333 3.72222 4.33333H4.83333C5.4227 4.33333 5.98793 4.09921 6.40468 3.68246C6.82143 3.26571 7.05556 2.70048 7.05556 2.11111C7.05556 1.81643 7.17262 1.53381 7.38099 1.32544C7.58937 1.11706 7.87198 1 8.16667 1H14.8333C15.128 1 15.4106 1.11706 15.619 1.32544C15.8274 1.53381 15.9444 1.81643 15.9444 2.11111C15.9444 2.70048 16.1786 3.26571 16.5953 3.68246C17.0121 4.09921 17.5773 4.33333 18.1667 4.33333H19.2778C19.8671 4.33333 20.4324 4.56746 20.8491 4.98421C21.2659 5.40095 21.5 5.96619 21.5 6.55556V11" stroke="#113D7B" stroke-width="2" stroke-linecap="round" stroke-linejoin="round"/>
<path d="M14.8346 17.6667L17.0569 19.8889L21.5013 15.4444M8.16797 11C8.16797 11.8841 8.51916 12.7319 9.14428 13.357C9.7694 13.9821 10.6172 14.3333 11.5013 14.3333C12.3854 14.3333 13.2332 13.9821 13.8583 13.357C14.4834 12.7319 14.8346 11.8841 14.8346 11C14.8346 10.116 14.4834 9.2681 13.8583 8.64298C13.2332 8.01786 12.3854 7.66667 11.5013 7.66667C10.6172 7.66667 9.7694 8.01786 9.14428 8.64298C8.51916 9.2681 8.16797 10.116 8.16797 11Z" stroke="#113D7B" stroke-width="2" stroke-linecap="round" stroke-linejoin="round"/>
</svg>
