<svg width="24" height="24" viewBox="0 0 24 24" fill="none" xmlns="http://www.w3.org/2000/svg">
<path d="M19.5293 3C18.7108 3.85261 17.7375 4.50913 16.672 4.92729C15.5483 5.14325 12.4387 3.57262 10.9064 5.17597C10.651 5.4541 10.3355 5.73223 10.005 6.01036C9.28393 5.66679 8.17226 5.14325 7.36104 4.63607C6.54983 4.12889 4.50676 3 4.50676 3L0 8.72623C0 8.72623 1.11167 10.3623 1.8027 11.4421C2.25338 12.162 2.80921 13.2581 3.16975 13.9944L2.65899 14.6488C2.53754 14.9136 2.49402 15.2128 2.53434 15.5056C2.57467 15.7984 2.69688 16.0705 2.88433 16.2849C3.10129 16.463 3.36574 16.5591 3.63746 16.5585C3.90918 16.5579 4.17328 16.4607 4.38958 16.2816C4.30927 16.384 4.24848 16.5028 4.21078 16.6311C4.17307 16.7593 4.15919 16.8945 4.16996 17.0287C4.18073 17.1629 4.21592 17.2933 4.27349 17.4125C4.33106 17.5317 4.40985 17.6373 4.50526 17.723C4.73496 17.8679 4.99583 17.9439 5.2613 17.9434C5.52676 17.9428 5.78735 17.8656 6.01653 17.7197C5.84488 17.9527 5.75097 18.2422 5.75015 18.541C5.74933 18.8397 5.84166 19.1298 6.01202 19.3639C6.23343 19.4477 6.46964 19.4744 6.70213 19.4421C6.93463 19.4097 7.15707 19.3191 7.35203 19.1774C7.25443 19.4278 7.22904 19.7046 7.27921 19.9711C7.32938 20.2376 7.45275 20.4812 7.63295 20.6695C7.88721 20.7914 8.16559 20.8415 8.44234 20.8152C8.7191 20.7889 8.98529 20.687 9.21632 20.519L9.99149 19.755C10.7006 20.5239 11.6785 21 12.7586 21L12.8503 20.9984C13.2063 20.9654 13.5473 20.8276 13.8369 20.5996C14.1264 20.3716 14.3535 20.0621 14.4937 19.7042C14.7131 19.7959 14.9624 19.858 15.2268 19.858C15.5814 19.858 15.9104 19.7468 16.1883 19.5554C17.0671 18.9222 16.8568 18.4314 16.8568 18.4314C17.1693 18.5779 17.5164 18.6126 17.8482 18.5306C18.1799 18.4486 18.4793 18.254 18.7031 17.9749C18.9356 17.7158 19.0822 17.3797 19.1198 17.0197C19.1573 16.6597 19.0836 16.2964 18.9104 15.9871C18.92 15.9929 18.9309 15.9957 18.9419 15.9953C19.5744 15.9953 20.1242 15.6157 20.4111 15.0562C20.5529 14.6586 20.6009 14.2287 20.5507 13.8057C20.5006 13.3827 20.354 12.9801 20.1242 12.6348L20.1287 12.643C21.3605 12.3812 21.3155 11.7104 21.9164 10.7288C22.4846 9.92697 23.1927 9.25532 24 8.75241L19.5293 3ZM19.4542 14.5506C18.7932 15.2705 18.2824 14.9596 17.1557 14.0271C16.029 13.0945 13.7907 11.3439 13.7907 11.3439C13.8823 11.8429 14.0941 12.2765 14.3931 12.6217C14.8723 13.2091 16.2994 14.5506 16.9755 15.2378C17.3961 15.6632 18.4777 16.5139 17.8468 17.1683C17.2158 17.8228 16.7201 17.1683 15.6835 16.2521C14.647 15.3359 12.3335 13.0782 12.3335 13.0782C12.321 13.2946 12.3507 13.5114 12.4206 13.7144C12.4905 13.9174 12.5991 14.102 12.7391 14.2561C12.9945 14.5833 14.4216 16.0885 15.0225 16.7757C15.6234 17.4628 16.1492 17.8718 15.6385 18.4117C15.1277 18.9516 14.0911 18.1009 13.5203 17.4628C12.634 16.5303 10.8763 14.796 10.8763 14.796L10.8748 14.8827C10.8748 15.3474 11.022 15.7728 11.2699 16.1098C11.7026 16.7282 12.5438 17.5299 13.0546 18.1516C13.5653 18.7733 13.8658 19.2969 13.0546 19.7877C12.2434 20.2785 11.0416 19.0678 10.5158 18.4788V18.4755C10.5174 18.3137 10.4639 18.1569 10.3655 18.0354C10.1855 17.8548 9.96381 17.7308 9.7241 17.6766C9.4844 17.6224 9.23568 17.6401 9.00451 17.7279C9.09938 17.635 9.17541 17.5216 9.22774 17.3949C9.28006 17.2683 9.30753 17.1311 9.30838 16.9922C9.30923 16.8533 9.28344 16.7157 9.23267 16.5883C9.18189 16.4608 9.10725 16.3463 9.01352 16.2521C8.81633 16.0894 8.57564 16.0015 8.32824 16.0018C8.08084 16.0021 7.84033 16.0906 7.64347 16.2538C7.74301 16.1502 7.81985 16.0236 7.86829 15.8832C7.91672 15.7429 7.9355 15.5925 7.92323 15.4432C7.91097 15.2938 7.86797 15.1494 7.79742 15.0207C7.72688 14.892 7.63062 14.7822 7.51577 14.6995C7.24684 14.5155 6.93128 14.429 6.6144 14.4525C6.29753 14.476 5.99565 14.6083 5.75213 14.8304C5.91488 14.6156 5.99513 14.3406 5.97609 14.0628C5.95705 13.7851 5.84021 13.5261 5.64997 13.3399C5.41306 13.1012 5.11185 12.9519 4.79095 12.9142C4.47005 12.8765 4.14653 12.9524 3.8683 13.1305L2.8693 11.2932C2.17827 10.0989 1.36705 8.85548 1.36705 8.85548L4.79219 4.32358C4.79219 4.32358 6.00901 5.14161 7.01552 5.76332C7.51127 6.07417 8.36755 6.48318 9.01352 6.8104C7.99199 7.64479 7.1357 8.44646 7.39109 9.00273C7.84586 9.35941 8.38987 9.5562 8.95022 9.56672C9.51057 9.57725 10.0605 9.40101 10.5263 9.06163C11.1235 8.62803 11.826 8.39845 12.5438 8.40229C13.0651 8.40229 13.5608 8.52009 14.01 8.73441C14.8423 9.3463 16.3746 10.8515 17.7717 11.8004C19.5293 13.1911 19.8748 14.0909 19.4542 14.549V14.5506Z" fill="#F4F4F4"/>
</svg>
