<svg width="16" height="17" viewBox="0 0 16 17" fill="none" xmlns="http://www.w3.org/2000/svg">
<path d="M4.11111 13.5C3.80556 13.5 3.54407 13.3913 3.32667 13.1739C3.10926 12.9565 3.00037 12.6948 3 12.3889V4.61111C3 4.30556 3.10889 4.04407 3.32667 3.82667C3.54444 3.60926 3.80593 3.50037 4.11111 3.5H11.8889C12.1944 3.5 12.4561 3.60889 12.6739 3.82667C12.8917 4.04444 13.0004 4.30593 13 4.61111V12.3889C13 12.6944 12.8913 12.9561 12.6739 13.1739C12.4565 13.3917 12.1948 13.5004 11.8889 13.5H4.11111ZM4.11111 12.3889H11.8889V4.61111H4.11111V12.3889ZM4.66667 11.2778H11.3333L9.25 8.5L7.58333 10.7222L6.33333 9.05556L4.66667 11.2778Z" fill="black"/>
</svg>
