<svg width="24" height="24" viewBox="0 0 24 24" fill="none" xmlns="http://www.w3.org/2000/svg">
<path d="M15.4743 1.5C15.6832 1.5 15.8835 1.58297 16.0312 1.73065C16.1789 1.87833 16.2618 2.07863 16.2618 2.28748V2.46492C17.0473 2.66442 17.629 3.37525 17.629 4.22257C17.629 4.43142 17.546 4.63172 17.3983 4.7794C17.2506 4.92708 17.0503 5.01005 16.8415 5.01005C16.6326 5.01005 16.4323 4.92708 16.2846 4.7794C16.1369 4.63172 16.0539 4.43142 16.0539 4.22257C16.0539 4.15936 16.0288 4.09874 15.9841 4.05404C15.9394 4.00934 15.8788 3.98423 15.8156 3.98423H15.4008C15.2821 3.98429 15.1671 4.026 15.076 4.10209C14.9849 4.17819 14.9233 4.28384 14.9021 4.40065C14.8808 4.51745 14.9013 4.638 14.9598 4.7413C15.0183 4.84461 15.1112 4.9241 15.2223 4.96595L16.2776 5.36179C16.6761 5.51092 17.0194 5.77858 17.2612 6.12873C17.5031 6.47888 17.6318 6.8947 17.6301 7.32022C17.6283 7.74574 17.4963 8.16051 17.2517 8.5087C17.007 8.85688 16.6616 9.12177 16.2618 9.26768V9.51547C16.2618 9.72432 16.1789 9.92462 16.0312 10.0723C15.8835 10.22 15.6832 10.3029 15.4743 10.3029C15.2654 10.3029 15.0651 10.22 14.9174 10.0723C14.7698 9.92462 14.6868 9.72432 14.6868 9.51547V9.33698C14.2961 9.23748 13.9497 9.01089 13.702 8.69287C13.4543 8.37485 13.3194 7.98347 13.3186 7.58038C13.3186 7.37152 13.4016 7.17123 13.5492 7.02355C13.6969 6.87586 13.8972 6.7929 14.1061 6.7929C14.315 6.7929 14.5153 6.87586 14.663 7.02355C14.8107 7.17123 14.8936 7.37152 14.8936 7.58038C14.8936 7.71162 15.0007 7.81767 15.132 7.81767H15.5468C15.665 7.81697 15.7793 7.77498 15.8698 7.69896C15.9604 7.62295 16.0216 7.51768 16.0427 7.40136C16.0639 7.28503 16.0438 7.16497 15.9858 7.06192C15.9278 6.95887 15.8357 6.87931 15.7253 6.837L14.67 6.44116C14.2715 6.29192 13.9282 6.02417 13.6865 5.67396C13.4448 5.32374 13.3162 4.90788 13.318 4.48236C13.3199 4.05685 13.4521 3.64211 13.6968 3.29399C13.9415 2.94586 14.287 2.68107 14.6868 2.53527V2.28748C14.6868 2.07863 14.7698 1.87833 14.9174 1.73065C15.0651 1.58297 15.2654 1.5 15.4743 1.5ZM19.7984 11.0379C20.1158 10.7801 20.5174 10.6488 20.9259 10.6692C21.3344 10.6897 21.7209 10.8605 22.011 11.1487C22.3011 11.437 22.4743 11.8224 22.4974 12.2307C22.5204 12.639 22.3916 13.0414 22.1358 13.3605L18.0753 18.4308C17.8806 18.6737 17.6339 18.8699 17.3532 19.0047C17.0726 19.1395 16.7653 19.2097 16.454 19.2098H9.97106C9.77584 19.2099 9.58762 19.2825 9.4429 19.4135L8.89163 19.9112C8.94608 20.0824 8.94036 20.2671 8.87542 20.4346C8.81048 20.602 8.69023 20.7423 8.53461 20.832L5.82971 22.3944C5.7401 22.4462 5.64116 22.4798 5.53855 22.4933C5.43594 22.5068 5.33168 22.4999 5.23172 22.4731C5.13176 22.4463 5.03807 22.4 4.956 22.337C4.87393 22.2739 4.80509 22.1953 4.75343 22.1057L1.60541 16.6521C1.50111 16.4714 1.47282 16.2566 1.52677 16.055C1.58071 15.8534 1.71248 15.6815 1.89312 15.5769L4.59907 14.0146C4.71755 13.9462 4.8518 13.9098 4.9886 13.9091C5.12541 13.9084 5.26004 13.9433 5.37925 14.0104L7.15696 12.5908C7.73763 12.1257 8.47266 11.8055 9.28329 11.8023C10.137 11.7981 11.4873 11.8737 12.7085 12.3199H15.4365C16.1316 12.3199 16.7375 12.6969 17.062 13.2576L19.7984 11.0379ZM8.38656 18.2449C8.82115 17.852 9.38623 17.6346 9.97211 17.6349H16.454C16.5293 17.6346 16.6035 17.6175 16.6713 17.5848C16.739 17.5521 16.7986 17.5046 16.8457 17.4459L20.9062 12.3766C20.9196 12.361 20.9267 12.3408 20.9259 12.3202C20.9252 12.2995 20.9166 12.2799 20.902 12.2653C20.8874 12.2507 20.8678 12.2422 20.8471 12.2414C20.8265 12.2406 20.8063 12.2477 20.7907 12.2611L16.7459 15.5412C16.396 15.8832 15.9258 16.0744 15.4365 16.0736H12.5647C12.3558 16.0736 12.1555 15.9906 12.0078 15.8429C11.8601 15.6953 11.7771 15.495 11.7771 15.2861C11.7771 15.0773 11.8601 14.877 12.0078 14.7293C12.1555 14.5816 12.3558 14.4986 12.5647 14.4986H15.4365C15.4855 14.4986 15.531 14.4881 15.573 14.4671L15.5982 14.444L15.6749 14.3821C15.7097 14.3374 15.7312 14.2839 15.7371 14.2276C15.743 14.1713 15.7329 14.1145 15.7081 14.0636C15.6832 14.0127 15.6446 13.9698 15.5966 13.9398C15.5486 13.9098 15.4931 13.8939 15.4365 13.8938H12.6203C12.4824 13.8931 12.3533 13.8693 12.2328 13.8224C11.2605 13.4518 10.0981 13.3731 9.29064 13.3773C8.89793 13.3783 8.49786 13.5348 8.1398 13.8203L6.26233 15.3218L8.0999 18.5032L8.38656 18.2449ZM3.36318 16.5471L5.72366 20.6368L7.06561 19.8619L4.70407 15.7722L3.36318 16.5471Z" fill="#113D7B"/>
</svg>
