<svg width="41" height="41" viewBox="0 0 41 41" fill="none" xmlns="http://www.w3.org/2000/svg">
<path d="M29.3047 23.8333H32.638V28.8333H37.638V32.1667H32.638V37.1667H29.3047V32.1667H24.3047V28.8333H29.3047V23.8333ZM20.138 2.16666L35.9714 10.5V13.8333H4.30469V10.5L20.138 2.16666ZM27.638 17.1667H32.638V20.6333L30.9714 20.5C29.8047 20.5 28.688 20.7 27.638 21.0667V17.1667ZM4.30469 37.1667V32.1667H21.1047C21.4214 34.0667 22.288 35.7833 23.5214 37.1667H4.30469ZM17.638 17.1667H22.638V24.9667C21.8714 26.1167 21.338 27.4167 21.1047 28.8333H17.638V17.1667ZM7.63802 17.1667H12.638V28.8333H7.63802V17.1667Z" fill="#113D7B"/>
</svg>
