<svg width="41" height="41" viewBox="0 0 41 41" fill="none" xmlns="http://www.w3.org/2000/svg">
<path d="M20.9714 5.5L4.30469 20.5H9.30469V33.8333H17.638V23.8333H24.3047V25.6833L33.3547 16.6333L20.9714 5.5ZM36.038 19.0667C35.7962 19.074 35.5653 19.1688 35.388 19.3333L33.7214 21L37.138 24.4167L38.8047 22.75C38.9726 22.5786 39.0667 22.3483 39.0667 22.1083C39.0667 21.8684 38.9726 21.638 38.8047 21.4667L36.6714 19.3333C36.5047 19.1667 36.2714 19.0667 36.038 19.0667ZM32.738 21.9667L22.638 32.0667V35.5H26.0714L36.1547 25.3833L32.738 21.9667Z" fill="#113D7B"/>
</svg>
