<svg width="14" height="15" viewBox="0 0 14 15" fill="none" xmlns="http://www.w3.org/2000/svg">
<path d="M4.08073 1.66666H9.91406C10.2235 1.66666 10.5202 1.78957 10.739 2.00837C10.9578 2.22716 11.0807 2.5239 11.0807 2.83332V12.1667C11.0807 12.4761 10.9578 12.7728 10.739 12.9916C10.5202 13.2104 10.2235 13.3333 9.91406 13.3333H4.08073C3.77131 13.3333 3.47456 13.2104 3.25577 12.9916C3.03698 12.7728 2.91406 12.4761 2.91406 12.1667V2.83332C2.91406 2.5239 3.03698 2.22716 3.25577 2.00837C3.47456 1.78957 3.77131 1.66666 4.08073 1.66666ZM4.08073 2.83332V5.16666H9.91406V2.83332H4.08073ZM4.08073 6.33332V7.49999H5.2474V6.33332H4.08073ZM6.41406 6.33332V7.49999H7.58073V6.33332H6.41406ZM8.7474 6.33332V7.49999H9.91406V6.33332H8.7474ZM4.08073 8.66666V9.83332H5.2474V8.66666H4.08073ZM6.41406 8.66666V9.83332H7.58073V8.66666H6.41406ZM8.7474 8.66666V9.83332H9.91406V8.66666H8.7474ZM4.08073 11V12.1667H5.2474V11H4.08073ZM6.41406 11V12.1667H7.58073V11H6.41406ZM8.7474 11V12.1667H9.91406V11H8.7474Z" fill="black"/>
</svg>
