<svg width="10" height="13" viewBox="0 0 10 13" fill="none" xmlns="http://www.w3.org/2000/svg">
<path d="M5.33274 11.8917L5.32602 11.8928L5.28631 11.9124L5.27512 11.9147L5.26729 11.9124L5.22757 11.8923C5.2216 11.8908 5.21713 11.8919 5.21414 11.8956L5.21191 11.9012L5.2024 12.1406L5.20519 12.1518L5.21079 12.1591L5.26897 12.2005L5.27736 12.2027L5.28407 12.2005L5.34225 12.1591L5.34896 12.1502L5.3512 12.1406L5.34169 11.9018C5.3402 11.8958 5.33721 11.8925 5.33274 11.8917ZM5.48042 11.8285L5.47259 11.8296L5.36966 11.8816L5.36406 11.8872L5.36239 11.8934L5.37245 12.1339L5.37525 12.1406L5.37973 12.1451L5.49217 12.1966C5.49925 12.1985 5.50466 12.197 5.50839 12.1921L5.51063 12.1843L5.49161 11.8408C5.48974 11.8337 5.48601 11.8296 5.48042 11.8285ZM5.08045 11.8296C5.07798 11.8281 5.07504 11.8276 5.07222 11.8283C5.06941 11.8289 5.06695 11.8306 5.06534 11.833L5.06199 11.8408L5.04297 12.1843C5.04334 12.191 5.04651 12.1955 5.05248 12.1977L5.06087 12.1966L5.17331 12.1446L5.1789 12.1401L5.18058 12.1339L5.19065 11.8934L5.18897 11.8867L5.18338 11.8811L5.08045 11.8296Z" fill="#767676"/>
<path d="M5 0C3.96147 0 2.96547 0.412556 2.23112 1.14691C1.49676 1.88126 1.08421 2.87726 1.08421 3.91579V5.88935C1.08429 5.97613 1.06418 6.06174 1.02547 6.13941L0.0649814 8.05982C0.0180626 8.15365 -0.00409208 8.2579 0.000621654 8.3627C0.00533539 8.46749 0.0367609 8.56934 0.0919137 8.65857C0.147066 8.7478 0.224115 8.82145 0.315741 8.87253C0.407368 8.9236 0.51053 8.9504 0.61543 8.95039H9.38457C9.48947 8.9504 9.59263 8.9236 9.68426 8.87253C9.77589 8.82145 9.85293 8.7478 9.90809 8.65857C9.96324 8.56934 9.99467 8.46749 9.99938 8.3627C10.0041 8.2579 9.98194 8.15365 9.93502 8.05982L8.97509 6.13941C8.93619 6.06179 8.91589 5.97618 8.91579 5.88935V3.91579C8.91579 2.87726 8.50324 1.88126 7.76888 1.14691C7.03453 0.412556 6.03853 0 5 0ZM5 10.6286C4.65281 10.6288 4.31411 10.5213 4.03057 10.3209C3.74704 10.1205 3.53263 9.83712 3.4169 9.50978H6.5831C6.46737 9.83712 6.25296 10.1205 5.96943 10.3209C5.68589 10.5213 5.34719 10.6288 5 10.6286Z" fill="#767676"/>
</svg>
