<svg width="16" height="16" viewBox="0 0 16 16" fill="none" xmlns="http://www.w3.org/2000/svg">
<path d="M13.5007 14C13.435 14.0001 13.37 13.9872 13.3093 13.9621C13.2487 13.9369 13.1936 13.9 13.1473 13.8534L2.14728 2.85343C2.05747 2.7589 2.00814 2.63303 2.00981 2.50265C2.01148 2.37227 2.06401 2.2477 2.15621 2.15549C2.24841 2.06329 2.37298 2.01076 2.50336 2.00909C2.63375 2.00742 2.75962 2.05675 2.85415 2.14656L13.8542 13.1466C13.924 13.2165 13.9716 13.3056 13.9909 13.4025C14.0102 13.4995 14.0003 13.6 13.9624 13.6913C13.9246 13.7826 13.8606 13.8607 13.7784 13.9157C13.6962 13.9706 13.5996 14 13.5007 14ZM7.75071 9.87031L6.13228 8.25187C6.123 8.24268 6.11108 8.23662 6.09819 8.23454C6.08529 8.23247 6.07207 8.23449 6.06038 8.24031C6.04869 8.24614 6.03912 8.25549 6.03302 8.26703C6.02691 8.27858 6.02458 8.29174 6.02634 8.30468C6.09168 8.72457 6.28883 9.1128 6.58931 9.41328C6.88978 9.71375 7.27802 9.91091 7.6979 9.97625C7.71084 9.97801 7.72401 9.97567 7.73556 9.96957C7.7471 9.96346 7.75644 9.95389 7.76227 9.9422C7.7681 9.93051 7.77012 9.91729 7.76804 9.9044C7.76597 9.8915 7.75991 9.87958 7.75071 9.87031ZM8.25071 6.12968L9.87165 7.75C9.8809 7.75932 9.89286 7.7655 9.90581 7.76764C9.91877 7.76979 9.93208 7.7678 9.94384 7.76195C9.95561 7.7561 9.96523 7.7467 9.97134 7.73507C9.97745 7.72345 9.97975 7.71019 9.9779 7.69718C9.91273 7.27673 9.71543 6.88793 9.41458 6.58707C9.11372 6.28622 8.72492 6.08892 8.30446 6.02375C8.29144 6.02174 8.27812 6.02389 8.2664 6.02991C8.25468 6.03592 8.24516 6.04549 8.2392 6.05724C8.23324 6.06898 8.23114 6.08232 8.23321 6.09533C8.23528 6.10834 8.2414 6.12036 8.25071 6.12968Z" fill="#767676"/>
<path d="M15.3437 8.5425C15.4472 8.38012 15.5019 8.19146 15.5014 7.99892C15.5008 7.80638 15.445 7.61804 15.3406 7.45625C14.5137 6.1775 13.4409 5.09125 12.2384 4.31469C10.9062 3.45469 9.4375 3 7.99 3C7.2269 3.00103 6.469 3.12544 5.74562 3.36844C5.72538 3.37517 5.70719 3.38698 5.6928 3.40273C5.6784 3.41848 5.66828 3.43765 5.6634 3.45842C5.65851 3.47919 5.65902 3.50086 5.66488 3.52138C5.67074 3.5419 5.68175 3.56057 5.69687 3.57562L7.17312 5.05188C7.18846 5.06724 7.20753 5.07834 7.22846 5.0841C7.24939 5.08985 7.27146 5.09005 7.2925 5.08469C7.79289 4.96274 8.31625 4.97168 8.81219 5.11063C9.30812 5.24959 9.75993 5.51388 10.1241 5.87807C10.4883 6.24225 10.7526 6.69406 10.8916 7.19C11.0305 7.68594 11.0394 8.2093 10.9175 8.70969C10.9122 8.73068 10.9124 8.75268 10.9182 8.77355C10.9239 8.79443 10.935 8.81344 10.9503 8.82875L13.0737 10.9537C13.0958 10.9759 13.1254 10.9889 13.1567 10.9903C13.1879 10.9917 13.2185 10.9813 13.2425 10.9613C14.0599 10.2646 14.7682 9.44924 15.3437 8.5425ZM8 11C7.54586 11 7.09764 10.8969 6.68913 10.6985C6.28063 10.5001 5.9225 10.2115 5.64175 9.85458C5.361 9.49761 5.16496 9.08156 5.06841 8.6378C4.97186 8.19404 4.97732 7.73416 5.08437 7.29281C5.08968 7.27182 5.08945 7.24982 5.0837 7.22895C5.07795 7.20807 5.06687 7.18905 5.05156 7.17375L2.96281 5.08406C2.94066 5.06189 2.91099 5.04884 2.87968 5.04751C2.84837 5.04618 2.8177 5.05666 2.79375 5.07688C2.03156 5.72719 1.325 6.51844 0.679061 7.44312C0.565994 7.60541 0.503723 7.79764 0.500162 7.9954C0.496601 8.19315 0.55191 8.3875 0.659061 8.55375C1.48437 9.84531 2.54625 10.9331 3.73031 11.6991C5.06437 12.5625 6.4975 13 7.99 13C8.76079 12.9979 9.52658 12.8762 10.26 12.6391C10.2804 12.6325 10.2988 12.6209 10.3134 12.6052C10.3281 12.5895 10.3384 12.5703 10.3434 12.5494C10.3485 12.5286 10.3481 12.5068 10.3423 12.4862C10.3365 12.4655 10.3255 12.4467 10.3103 12.4316L8.82687 10.9484C8.81157 10.9331 8.79255 10.9221 8.77168 10.9163C8.75081 10.9105 8.7288 10.9103 8.70781 10.9156C8.47606 10.9718 8.23845 11.0001 8 11Z" fill="#767676"/>
</svg>
