<svg width="19" height="19" viewBox="0 0 19 19" fill="none" xmlns="http://www.w3.org/2000/svg">
<path d="M10.7863 13.6486C10.7863 13.9896 10.6508 14.3166 10.4097 14.5577C10.1686 14.7988 9.84155 14.9343 9.50056 14.9343C9.15957 14.9343 8.83254 14.7988 8.59142 14.5577C8.3503 14.3166 8.21484 13.9896 8.21484 13.6486C8.21484 13.3076 8.3503 12.9805 8.59142 12.7394C8.83254 12.4983 9.15957 12.3629 9.50056 12.3629C9.84155 12.3629 10.1686 12.4983 10.4097 12.7394C10.6508 12.9805 10.7863 13.3076 10.7863 13.6486Z" fill="#113D7B"/>
<path d="M11.5117 0.5L14.2374 4.31943L16.0349 3.70657L17.6754 8.50571H18.5V18.7914H0.5V8.50571H0.937143V8.49714L1.49257 8.50229L11.5117 0.5ZM7.26886 8.50571H15.8643L14.9754 5.906L13.6709 6.32343L7.26886 8.50571ZM5.93343 7.14886L12.5429 4.89714L11.168 2.96857L5.93343 7.14886ZM3.92857 10.22H2.21429V11.9343C2.66894 11.9343 3.10498 11.7537 3.42647 11.4322C3.74796 11.1107 3.92857 10.6747 3.92857 10.22ZM12.5 13.6486C12.5 13.2546 12.4224 12.8645 12.2716 12.5005C12.1209 12.1365 11.8999 11.8058 11.6213 11.5273C11.3427 11.2487 11.012 11.0277 10.6481 10.8769C10.2841 10.7262 9.89397 10.6486 9.5 10.6486C9.10603 10.6486 8.71593 10.7262 8.35195 10.8769C7.98797 11.0277 7.65726 11.2487 7.37868 11.5273C7.1001 11.8058 6.87913 12.1365 6.72836 12.5005C6.5776 12.8645 6.5 13.2546 6.5 13.6486C6.5 14.4442 6.81607 15.2073 7.37868 15.7699C7.94129 16.3325 8.70435 16.6486 9.5 16.6486C10.2956 16.6486 11.0587 16.3325 11.6213 15.7699C12.1839 15.2073 12.5 14.4442 12.5 13.6486ZM16.7857 17.0771V15.3629C16.3311 15.3629 15.895 15.5435 15.5735 15.865C15.252 16.1865 15.0714 16.6225 15.0714 17.0771H16.7857ZM15.0714 10.22C15.0714 10.6747 15.252 11.1107 15.5735 11.4322C15.895 11.7537 16.3311 11.9343 16.7857 11.9343V10.22H15.0714ZM2.21429 17.0771H3.92857C3.92857 16.6225 3.74796 16.1865 3.42647 15.865C3.10498 15.5435 2.66894 15.3629 2.21429 15.3629V17.0771Z" fill="#113D7B"/>
</svg>
