<svg width="36" height="37" viewBox="0 0 36 37" fill="none" xmlns="http://www.w3.org/2000/svg">
<path fill-rule="evenodd" clip-rule="evenodd" d="M18 32C19.7728 32 21.5283 31.6508 23.1662 30.9724C24.8041 30.2939 26.2923 29.2995 27.5459 28.0459C28.7995 26.7923 29.7939 25.3041 30.4724 23.6662C31.1508 22.0283 31.5 20.2728 31.5 18.5C31.5 16.7272 31.1508 14.9717 30.4724 13.3338C29.7939 11.6959 28.7995 10.2076 27.5459 8.95406C26.2923 7.70047 24.8041 6.70606 23.1662 6.02763C21.5283 5.34919 19.7728 5 18 5C14.4196 5 10.9858 6.42232 8.45406 8.95406C5.92232 11.4858 4.5 14.9196 4.5 18.5C4.5 22.0804 5.92232 25.5142 8.45406 28.0459C10.9858 30.5777 14.4196 32 18 32ZM17.652 23.96L25.152 14.96L22.848 13.04L16.398 20.7785L13.0605 17.4395L10.9395 19.5605L15.4395 24.0605L16.6005 25.2215L17.652 23.96Z" fill="#248326"/>
</svg>
