<svg width="40" height="41" viewBox="0 0 40 41" fill="none" xmlns="http://www.w3.org/2000/svg">
<path d="M32.5 8C31.138 9.30284 29.5182 10.306 27.745 10.945C25.875 11.275 20.7 8.875 18.15 11.325C17.725 11.75 17.2 12.175 16.65 12.6C15.45 12.075 13.6 11.275 12.25 10.5C10.9 9.725 7.5 8 7.5 8L0 16.75C0 16.75 1.85 19.25 3 20.9C3.75 22 4.675 23.675 5.275 24.8L4.425 25.8C4.2229 26.2047 4.15047 26.6619 4.21757 27.1092C4.28467 27.5566 4.48805 27.9724 4.8 28.3C5.16106 28.5722 5.60116 28.7191 6.05334 28.7182C6.50552 28.7172 6.94503 28.5687 7.305 28.295C7.17134 28.4515 7.07018 28.633 7.00743 28.829C6.94468 29.025 6.92159 29.2316 6.93951 29.4366C6.95743 29.6416 7.016 29.841 7.1118 30.0232C7.2076 30.2053 7.33872 30.3666 7.4975 30.4975C7.87977 30.719 8.31389 30.8352 8.75567 30.8343C9.19746 30.8334 9.63111 30.7155 10.0125 30.4925C9.72686 30.8485 9.57057 31.291 9.5692 31.7474C9.56784 32.2039 9.72149 32.6473 10.005 33.005C10.3735 33.133 10.7666 33.1738 11.1535 33.1244C11.5404 33.0749 11.9106 32.9365 12.235 32.72C12.0726 33.1026 12.0303 33.5256 12.1138 33.9328C12.1973 34.34 12.4026 34.7122 12.7025 35C13.1256 35.1862 13.5889 35.2628 14.0495 35.2226C14.51 35.1824 14.953 35.0267 15.3375 34.77L16.6275 33.6025C17.8075 34.7775 19.435 35.505 21.2325 35.505L21.385 35.5025C21.9774 35.4522 22.545 35.2416 23.0268 34.8932C23.5087 34.5448 23.8866 34.0718 24.12 33.525C24.485 33.665 24.9 33.76 25.34 33.76C25.93 33.76 26.4775 33.59 26.94 33.2975C28.4025 32.33 28.0525 31.58 28.0525 31.58C28.5725 31.8039 29.1502 31.8569 29.7023 31.7316C30.2545 31.6062 30.7526 31.309 31.125 30.8825C31.512 30.4866 31.756 29.973 31.8185 29.4229C31.881 28.8728 31.7584 28.3176 31.47 27.845C31.486 27.8539 31.5042 27.8582 31.5225 27.8575C32.575 27.8575 33.49 27.2775 33.9675 26.4225C34.2034 25.815 34.2833 25.158 34.1999 24.5117C34.1164 23.8654 33.8724 23.2502 33.49 22.7225L33.4975 22.735C35.5475 22.335 35.4725 21.31 36.4725 19.81C37.4182 18.5848 38.5965 17.5585 39.94 16.79L32.5 8ZM32.375 25.65C31.275 26.75 30.425 26.275 28.55 24.85C26.675 23.425 22.95 20.75 22.95 20.75C23.1025 21.5125 23.455 22.175 23.9525 22.7025C24.75 23.6 27.125 25.65 28.25 26.7C28.95 27.35 30.75 28.65 29.7 29.65C28.65 30.65 27.825 29.65 26.1 28.25C24.375 26.85 20.525 23.4 20.525 23.4C20.5043 23.7307 20.5537 24.062 20.67 24.3722C20.7864 24.6824 20.967 24.9645 21.2 25.2C21.625 25.7 24 28 25 29.05C26 30.1 26.875 30.725 26.025 31.55C25.175 32.375 23.45 31.075 22.5 30.1C21.025 28.675 18.1 26.025 18.1 26.025L18.0975 26.1575C18.0975 26.8675 18.3425 27.5175 18.755 28.0325C19.475 28.9775 20.875 30.2025 21.725 31.1525C22.575 32.1025 23.075 32.9025 21.725 33.6525C20.375 34.4025 18.375 32.5525 17.5 31.6525V31.6475C17.5027 31.4001 17.4136 31.1605 17.25 30.975C16.9504 30.6989 16.5814 30.5094 16.1825 30.4266C15.7836 30.3439 15.3697 30.3709 14.985 30.505C15.1429 30.3631 15.2694 30.1899 15.3565 29.9963C15.4436 29.8027 15.4893 29.5931 15.4907 29.3808C15.4921 29.1686 15.4492 28.9583 15.3647 28.7636C15.2802 28.5689 15.156 28.394 15 28.25C14.6718 28.0014 14.2713 27.867 13.8596 27.8675C13.4479 27.8679 13.0476 28.0031 12.72 28.2525C12.8857 28.0943 13.0135 27.9007 13.0941 27.6863C13.1747 27.4719 13.206 27.242 13.1856 27.0138C13.1652 26.7857 13.0936 26.565 12.9762 26.3683C12.8588 26.1716 12.6986 26.0038 12.5075 25.8775C12.06 25.5963 11.5348 25.4642 11.0075 25.5001C10.4801 25.536 9.97776 25.7382 9.5725 26.0775C9.84335 25.7492 9.97689 25.329 9.94521 24.9046C9.91353 24.4802 9.71909 24.0844 9.4025 23.8C9.00823 23.4352 8.50697 23.2071 7.97294 23.1495C7.43891 23.0918 6.90052 23.2077 6.4375 23.48L4.775 20.6725C3.625 18.8475 2.275 16.9475 2.275 16.9475L7.975 10.0225C7.975 10.0225 10 11.2725 11.675 12.2225C12.5 12.6975 13.925 13.3225 15 13.8225C13.3 15.0975 11.875 16.3225 12.3 17.1725C13.0568 17.7175 13.9621 18.0182 14.8947 18.0343C15.8272 18.0504 16.7423 17.7811 17.5175 17.2625C18.5114 16.5999 19.6805 16.2491 20.875 16.255C21.7425 16.255 22.5675 16.435 23.315 16.7625C24.7 17.6975 27.25 19.9975 29.575 21.4475C32.5 23.5725 33.075 24.9475 32.375 25.6475V25.65Z" fill="#113D7B"/>
</svg>
